<svg width="31" height="31" viewBox="0 0 31 31" fill="none" xmlns="http://www.w3.org/2000/svg">
<path d="M2.58333 6.45833H7.16229C7.31962 7.35642 7.78859 8.17027 8.48672 8.75672C9.18484 9.34318 10.0674 9.66469 10.9792 9.66469C11.8909 9.66469 12.7735 9.34318 13.4716 8.75672C14.1697 8.17027 14.6387 7.35642 14.796 6.45833H28.4167C28.588 6.45833 28.7522 6.39029 28.8733 6.26917C28.9945 6.14806 29.0625 5.98379 29.0625 5.8125C29.0625 5.64122 28.9945 5.47695 28.8733 5.35583C28.7522 5.23471 28.588 5.16667 28.4167 5.16667H14.796C14.6387 4.26858 14.1697 3.45473 13.4716 2.86828C12.7735 2.28182 11.8909 1.96032 10.9792 1.96032C10.0674 1.96032 9.18484 2.28182 8.48672 2.86828C7.78859 3.45473 7.31962 4.26858 7.16229 5.16667H2.58333C2.41205 5.16667 2.24778 5.23471 2.12666 5.35583C2.00554 5.47695 1.9375 5.64122 1.9375 5.8125C1.9375 5.98379 2.00554 6.14806 2.12666 6.26917C2.24778 6.39029 2.41205 6.45833 2.58333 6.45833ZM10.9792 3.22917C11.4901 3.22917 11.9896 3.38068 12.4144 3.66454C12.8392 3.9484 13.1703 4.35186 13.3659 4.8239C13.5614 5.29594 13.6125 5.81537 13.5129 6.31648C13.4132 6.8176 13.1671 7.27791 12.8059 7.63919C12.4446 8.00048 11.9843 8.24652 11.4831 8.3462C10.982 8.44588 10.4626 8.39472 9.99057 8.19919C9.51853 8.00366 9.11506 7.67255 8.8312 7.24772C8.54734 6.8229 8.39583 6.32344 8.39583 5.8125C8.39583 5.12736 8.668 4.47028 9.15247 3.98581C9.63694 3.50134 10.294 3.22917 10.9792 3.22917ZM28.4167 14.8542H23.8377C23.6804 13.9561 23.2114 13.1422 22.5133 12.5558C21.8152 11.9693 20.9326 11.6478 20.0208 11.6478C19.1091 11.6478 18.2265 11.9693 17.5284 12.5558C16.8303 13.1422 16.3613 13.9561 16.204 14.8542H2.58333C2.41205 14.8542 2.24778 14.9222 2.12666 15.0433C2.00554 15.1644 1.9375 15.3287 1.9375 15.5C1.9375 15.6713 2.00554 15.8356 2.12666 15.9567C2.24778 16.0778 2.41205 16.1458 2.58333 16.1458H16.204C16.3613 17.0439 16.8303 17.8578 17.5284 18.4442C18.2265 19.0307 19.1091 19.3522 20.0208 19.3522C20.9326 19.3522 21.8152 19.0307 22.5133 18.4442C23.2114 17.8578 23.6804 17.0439 23.8377 16.1458H28.4167C28.588 16.1458 28.7522 16.0778 28.8733 15.9567C28.9945 15.8356 29.0625 15.6713 29.0625 15.5C29.0625 15.3287 28.9945 15.1644 28.8733 15.0433C28.7522 14.9222 28.588 14.8542 28.4167 14.8542ZM20.0208 18.0833C19.5099 18.0833 19.0104 17.9318 18.5856 17.648C18.1608 17.3641 17.8297 16.9606 17.6341 16.4886C17.4386 16.0166 17.3875 15.4971 17.4871 14.996C17.5868 14.4949 17.8329 14.0346 18.1941 13.6733C18.5554 13.312 19.0157 13.066 19.5168 12.9663C20.018 12.8666 20.5374 12.9178 21.0094 13.1133C21.4815 13.3088 21.8849 13.64 22.1688 14.0648C22.4527 14.4896 22.6042 14.9891 22.6042 15.5C22.6042 16.1851 22.332 16.8422 21.8475 17.3267C21.3631 17.8112 20.706 18.0833 20.0208 18.0833ZM28.4167 24.5417H14.796C14.6387 23.6436 14.1697 22.8297 13.4716 22.2433C12.7735 21.6568 11.8909 21.3353 10.9792 21.3353C10.0674 21.3353 9.18484 21.6568 8.48672 22.2433C7.78859 22.8297 7.31962 23.6436 7.16229 24.5417H2.58333C2.41205 24.5417 2.24778 24.6097 2.12666 24.7308C2.00554 24.8519 1.9375 25.0162 1.9375 25.1875C1.9375 25.3588 2.00554 25.5231 2.12666 25.6442C2.24778 25.7653 2.41205 25.8333 2.58333 25.8333H7.16229C7.31962 26.7314 7.78859 27.5453 8.48672 28.1317C9.18484 28.7182 10.0674 29.0397 10.9792 29.0397C11.8909 29.0397 12.7735 28.7182 13.4716 28.1317C14.1697 27.5453 14.6387 26.7314 14.796 25.8333H28.4167C28.588 25.8333 28.7522 25.7653 28.8733 25.6442C28.9945 25.5231 29.0625 25.3588 29.0625 25.1875C29.0625 25.0162 28.9945 24.8519 28.8733 24.7308C28.7522 24.6097 28.588 24.5417 28.4167 24.5417ZM10.9792 27.7708C10.4682 27.7708 9.96877 27.6193 9.54394 27.3355C9.11912 27.0516 8.788 26.6481 8.59248 26.1761C8.39695 25.7041 8.34579 25.1846 8.44547 24.6835C8.54515 24.1824 8.79119 23.7221 9.15247 23.3608C9.51376 22.9995 9.97407 22.7535 10.4752 22.6538C10.9763 22.5541 11.4957 22.6053 11.9678 22.8008C12.4398 22.9963 12.8433 23.3275 13.1271 23.7523C13.411 24.1771 13.5625 24.6766 13.5625 25.1875C13.5625 25.8726 13.2903 26.5297 12.8059 27.0142C12.3214 27.4987 11.6643 27.7708 10.9792 27.7708Z" fill="#DEB200"/>
</svg>
